<svg xmlns="http://www.w3.org/2000/svg" width="130" height="31" viewBox="0 0 130 31">
    <g fill="none" fill-rule="evenodd">
        <g>
            <g>
                <g>
                    <g>
                        <g fill="#9CBACD">
                            <path d="M74.976 6.046L76.186 6.046 76.186 0 74.976 0zM67.892 3.467v1.48h3.859c.26 0 .446-.034.558-.102.113-.068.168-.197.168-.386v-.372c0-.248-.05-.414-.15-.496-.1-.083-.277-.124-.53-.124h-3.905zm0-2.368v1.392h3.868c.242 0 .409-.038.5-.115.09-.077.135-.216.135-.417v-.38c0-.184-.055-.31-.168-.378-.112-.067-.313-.102-.603-.102h-3.732zM66.512 0h5.22c.352 0 .651.024.9.071.248.048.45.126.604.235.154.11.267.251.34.426.073.174.11.388.11.642v.497c0 .354-.064.609-.191.762-.128.154-.288.257-.482.31.109.024.21.061.305.111.093.05.173.123.24.217.067.095.118.218.154.369.037.15.055.338.055.562v.532c0 .243-.035.446-.104.612-.07.166-.182.3-.337.403-.154.104-.355.18-.604.227-.248.047-.547.07-.898.07H66.51V0zM63.863 1.888c0-.16-.018-.29-.053-.39-.036-.1-.096-.177-.179-.23-.084-.053-.2-.089-.349-.107-.149-.017-.333-.026-.554-.026h-3.333v1.844h3.333c.22 0 .404-.009.55-.027.146-.017.262-.053.349-.106.086-.053.147-.13.183-.23.035-.101.053-.234.053-.4v-.328zm-.902 4.158l-3.566-2.198v2.198h-1.349V0h4.772c.428 0 .795.026 1.099.08.304.053.552.148.746.284.194.135.335.322.425.558.089.237.133.535.133.896v.416c0 .349-.048.637-.143.865-.095.228-.242.407-.442.54-.2.133-.45.227-.755.28-.304.053-.664.08-1.081.08h-1.072l3.574 2.047H62.96zM54.449 2.137c0-.19-.014-.346-.042-.47-.03-.124-.077-.225-.144-.302-.067-.076-.159-.13-.275-.159-.116-.03-.26-.045-.43-.045H51.65c-.186 0-.337.015-.454.045-.116.03-.207.083-.275.16-.067.076-.112.177-.135.3-.024.125-.036.282-.036.47v1.782c0 .196.012.357.036.483.023.128.068.228.135.303.068.073.159.123.275.15.117.027.268.04.454.04h1.906c.171 0 .315-.013.43-.04.117-.027.209-.077.276-.15.067-.075.115-.175.144-.303.028-.126.042-.287.042-.483V2.137zm-2.852 3.91c-.388 0-.711-.037-.97-.111-.258-.075-.464-.192-.62-.355-.155-.162-.264-.375-.329-.639-.065-.262-.097-.586-.097-.97V2.075c0-.379.032-.7.097-.967.065-.266.174-.48.33-.642.155-.163.36-.281.62-.355.258-.074.58-.111.969-.111h2.007c.393 0 .718.037.977.11.258.075.465.193.62.356.155.162.265.376.33.642.064.266.097.588.097.967v1.897c0 .384-.033.708-.097.97-.065.264-.175.477-.33.639-.155.163-.362.28-.62.355-.259.074-.584.11-.977.11h-2.007zM46.67 6.046L43.561 3.094 43.561 6.046 42.325 6.046 42.325 0 43.561 0 43.561 2.89 46.604 0 48.282 0 45.091 2.935 48.372 6.046 46.67 6.046M35.5 3.67h2.742l-1.37-2.334L35.5 3.669zm3.332 1.015H34.91l-.806 1.361H32.65l3.29-5.465c.1-.168.218-.306.357-.416.138-.11.338-.165.598-.165.255 0 .451.055.59.165.138.11.257.248.357.416l3.273 5.465h-1.462l-.822-1.361z" transform="translate(-655 -357) translate(520 207) translate(70 149.5) translate(65 .5) translate(32.279 24.488)"/>
                            <path fill-rule="nonzero" d="M0 5.079V1.452h.886c.393 0 .675.074.846.222.172.147.258.39.258.729 0 .385-.118.687-.352.906-.235.22-.56.329-.976.329H.457v1.44H0zm.457-1.83h.187c.274 0 .486-.071.635-.212.15-.14.225-.339.225-.595 0-.217-.059-.373-.176-.466-.117-.093-.313-.14-.587-.14H.457v1.412zm2.935 1.89c-.341 0-.614-.125-.818-.378-.203-.252-.305-.59-.305-1.013 0-.428.102-.767.307-1.016.204-.249.481-.373.832-.373.35 0 .627.124.832.373.204.25.306.586.306 1.011 0 .435-.102.776-.307 1.024-.205.249-.488.373-.847.373zm.007-.362c.459 0 .688-.345.688-1.034 0-.681-.226-1.022-.68-1.022-.45 0-.676.342-.676 1.027 0 .686.222 1.03.668 1.03zm2.058.302l-.684-2.662h.424l.524 2.061.565-2.06h.433l.494 2.06.6-2.06h.372l-.778 2.66H6.97l-.505-2.06-.572 2.06h-.437zm4.898-.086c-.29.098-.539.147-.745.147-.352 0-.639-.13-.861-.391-.222-.26-.333-.598-.333-1.013 0-.404.098-.735.293-.993.196-.258.446-.387.751-.387.289 0 .512.114.67.343.157.229.236.554.236.975l-.002.15H8.858c.063.632.34.948.833.948.18 0 .402-.054.664-.161v.382zM8.878 3.46H9.93c0-.495-.166-.742-.497-.742-.333 0-.518.247-.556.742zM11.07 5.08V2.417h.433v.5c.171-.372.42-.558.747-.558.044 0 .09.004.139.012v.45c-.075-.027-.141-.041-.198-.041-.274 0-.504.181-.688.544v1.755h-.433zm3.548-.086c-.29.098-.539.147-.745.147-.352 0-.639-.13-.861-.391-.222-.26-.333-.598-.333-1.013 0-.404.098-.735.293-.993.196-.258.446-.387.751-.387.289 0 .512.114.67.343.157.229.236.554.236.975l-.002.15H13.12c.063.632.34.948.833.948.18 0 .402-.054.664-.161v.382zM13.14 3.46h1.053c0-.495-.166-.742-.497-.742-.333 0-.518.247-.556.742zm3.724 1.618v-.5c-.176.374-.441.56-.796.56-.287 0-.513-.116-.678-.35-.165-.233-.248-.553-.248-.958 0-.442.094-.799.28-1.068.188-.27.433-.404.738-.404.283 0 .518.12.704.362V1.21h.435v3.87h-.435zm0-2.027c-.224-.22-.437-.33-.638-.33-.415 0-.622.353-.622 1.06 0 .623.185.934.554.934.24 0 .476-.146.706-.439V3.052zm2.638 2.056V1.209h.433v1.708c.178-.372.444-.558.798-.558.288 0 .514.116.678.35.165.234.248.553.248.958 0 .441-.094.797-.28 1.067-.187.27-.433.406-.738.406-.283 0-.518-.121-.706-.363l-.053.331h-.38zm.433-.664c.223.222.436.333.638.333.416 0 .624-.354.624-1.06 0-.625-.185-.937-.554-.937-.242 0-.478.146-.708.439v1.225zm2.496 1.602l.386-.967-.923-2.662h.468l.684 2.005.73-2.005h.409l-1.304 3.63h-.45z" transform="translate(-655 -357) translate(520 207) translate(70 149.5) translate(65 .5) translate(32.279 24.488)"/>
                        </g>
                        <g fill="#4F82A7">
                            <path d="M117.202 18.139L117.202 3.484 110.046 3.484 110.046 0 128.185 0 128.185 3.484 121.03 3.484 121.03 18.139 117.202 18.139M102.521 6.012c0-.975-.2-1.64-.601-1.995-.403-.355-1.124-.533-2.166-.533h-9.997V9.68h10.047c1.025 0 1.734-.163 2.128-.491.393-.327.59-.972.59-1.93V6.013zm-12.764 6.939v5.188H85.86V0h13.996c1.247 0 2.29.103 3.127.306.838.205 1.512.543 2.026 1.01.512.472.875 1.079 1.089 1.823.213.746.32 1.649.32 2.714V7.42c0 1.082-.102 1.977-.308 2.686-.205.71-.56 1.277-1.063 1.704-.505.424-1.176.722-2.012.89-.838.168-1.898.25-3.179.25H89.757zM63.373 11.009h8.616l-4.31-7-4.306 7zm10.47 3.045H61.519l-2.532 4.085h-4.569L64.756 1.744c.314-.504.688-.919 1.123-1.25C66.314.165 66.94 0 67.76 0c.8 0 1.419.164 1.853.495.435.33.81.745 1.123 1.25l10.287 16.394h-4.596l-2.584-4.085zM48.103 6.41c0-.55-.047-1.016-.141-1.395-.094-.382-.255-.683-.487-.906-.23-.22-.534-.38-.91-.479-.376-.097-.854-.146-1.435-.146h-9.793V14.68h9.793c.53 0 .982-.044 1.359-.134.375-.088.683-.243.923-.465.24-.22.414-.519.524-.89.111-.372.167-.843.167-1.411V6.41zM31.442 18.14V0h13.841c1.298 0 2.38.112 3.244.332.863.223 1.55.579 2.064 1.066.512.487.875 1.13 1.088 1.926.213.798.32 1.764.32 2.9v5.69c0 1.156-.107 2.123-.32 2.914-.213.788-.576 1.426-1.088 1.913-.514.49-1.201.843-2.064 1.065-.863.223-1.946.333-3.244.333H31.442zM8.955 11.009h8.616l-4.308-7-4.308 7zm10.47 3.045H7.101L4.57 18.139H0L10.339 1.744c.313-.504.687-.919 1.123-1.25.434-.33 1.061-.494 1.88-.494.8 0 1.418.164 1.853.495.435.33.81.745 1.124 1.25l10.285 16.394H22.01l-2.585-4.085z" transform="translate(-655 -357) translate(520 207) translate(70 149.5) translate(65 .5) translate(.837 .512)"/>
                        </g>
                    </g>
                </g>
            </g>
        </g>
    </g>
</svg>
